<?xml version="1.0" encoding="UTF-8" standalone="no"?>
<!DOCTYPE svg PUBLIC "-//W3C//DTD SVG 1.1//EN"
 "http://www.w3.org/Graphics/SVG/1.1/DTD/svg11.dtd">
<!-- Generated by graphviz version 2.42.4 (0)
 -->
<!-- Title: G Pages: 1 -->
<svg width="1266pt" height="877pt"
 viewBox="0.00 0.00 1265.86 877.00" xmlns="http://www.w3.org/2000/svg" xmlns:xlink="http://www.w3.org/1999/xlink">
<g id="graph0" class="graph" transform="scale(1 1) rotate(0) translate(4 873)">
<title>G</title><style>.edge>path:hover{stroke-width:8}</style>
<polygon fill="white" stroke="transparent" points="-4,4 -4,-873 1261.86,-873 1261.86,4 -4,4"/>
<!-- aiohttp -->
<g id="node1" class="node">
<title>aiohttp</title><style>.edge>path:hover{stroke-width:8}</style>
<polygon fill="blue" stroke="black" points="227.83,-507 224.83,-511 203.83,-511 200.83,-507 173.83,-507 173.83,-471 227.83,-471 227.83,-507"/>
<text text-anchor="middle" x="200.83" y="-486.5" font-family="Helvetica,sans-Serif" font-size="10.00" fill="white">aiohttp</text>
</g>
<!-- ccxt -->
<g id="node4" class="node">
<title>ccxt</title><style>.edge>path:hover{stroke-width:8}</style>
<polygon fill="blue" stroke="black" points="244.83,-254 241.83,-258 220.83,-258 217.83,-254 190.83,-254 190.83,-218 244.83,-218 244.83,-254"/>
<text text-anchor="middle" x="217.83" y="-233.5" font-family="Helvetica,sans-Serif" font-size="10.00" fill="white">ccxt</text>
</g>
<!-- aiohttp&#45;&gt;ccxt -->
<g id="edge1" class="edge">
<title>aiohttp&#45;&gt;ccxt</title><style>.edge>path:hover{stroke-width:8}</style>
<path fill="none" stroke="black" d="M217.83,-290C213.02,-282.4 211.89,-272.87 212.32,-264"/>
<polygon fill="blue" stroke="black" points="215.8,-264.37 213.42,-254.04 208.85,-263.6 215.8,-264.37"/>
</g>
<!-- market_data -->
<g id="node10" class="node">
<title>market_data</title><style>.edge>path:hover{stroke-width:8}</style>
<polygon fill="#3ff910" stroke="black" points="311.83,-36 308.83,-40 287.83,-40 284.83,-36 233.83,-36 233.83,0 311.83,0 311.83,-36"/>
<text text-anchor="middle" x="272.83" y="-15.5" font-family="Helvetica,sans-Serif" font-size="10.00" fill="#000000">market_data</text>
</g>
<!-- aiohttp&#45;&gt;market_data -->
<g id="edge2" class="edge">
<title>aiohttp&#45;&gt;market_data</title><style>.edge>path:hover{stroke-width:8}</style>
<path fill="none" stroke="black" d="M208.76,-470.82C224.25,-434.45 254.03,-348.32 217.83,-291"/>
<path fill="none" stroke="black" d="M217.83,-290C156.39,-217.94 68.87,-326.4 7.83,-254 -2.49,-241.77 -2.7,-230.05 7.83,-218 46.92,-173.24 269.75,-241.35 272.83,-182"/>
<path fill="none" stroke="black" d="M272.83,-181C274.54,-133.03 283.94,-119.7 272.83,-73"/>
<path fill="none" stroke="black" d="M272.83,-72C270.73,-63.85 270.14,-54.77 270.23,-46.45"/>
<polygon fill="blue" stroke="black" points="273.73,-46.6 270.66,-36.46 266.73,-46.3 273.73,-46.6"/>
</g>
<!-- aiokafka -->
<g id="node2" class="node">
<title>aiokafka</title><style>.edge>path:hover{stroke-width:8}</style>
<polygon fill="blue" stroke="black" points="74.83,-254 71.83,-258 50.83,-258 47.83,-254 16.83,-254 16.83,-218 74.83,-218 74.83,-254"/>
<text text-anchor="middle" x="45.83" y="-233.5" font-family="Helvetica,sans-Serif" font-size="10.00" fill="white">aiokafka</text>
</g>
<!-- aiokafka&#45;&gt;market_data -->
<g id="edge3" class="edge">
<title>aiokafka&#45;&gt;market_data</title><style>.edge>path:hover{stroke-width:8}</style>
<path fill="none" stroke="black" d="M75.02,-221.13C77.96,-219.98 80.93,-218.91 83.83,-218 124.62,-205.18 270.61,-224.7 272.83,-182"/>
</g>
<!-- aioresilience -->
<g id="node3" class="node">
<title>aioresilience</title><style>.edge>path:hover{stroke-width:8}</style>
<polygon fill="#6b462e" stroke="black" points="172.33,-254 169.33,-258 148.33,-258 145.33,-254 93.33,-254 93.33,-218 172.33,-218 172.33,-254"/>
<text text-anchor="middle" x="132.83" y="-233.5" font-family="Helvetica,sans-Serif" font-size="10.00" fill="#ffffff">aioresilience</text>
</g>
<!-- aioresilience&#45;&gt;market_data -->
<g id="edge4" class="edge">
<title>aioresilience&#45;&gt;market_data</title><style>.edge>path:hover{stroke-width:8}</style>
<path fill="none" stroke="black" d="M172.52,-220.95C213.86,-206.18 272.69,-184.69 272.83,-182"/>
</g>
<!-- ccxt&#45;&gt;market_data -->
<g id="edge5" class="edge">
<title>ccxt&#45;&gt;market_data</title><style>.edge>path:hover{stroke-width:8}</style>
<path fill="none" stroke="black" d="M244.99,-221C258.41,-211.99 271.96,-198.82 272.83,-182"/>
</g>
<!-- duckdb -->
<g id="node5" class="node">
<title>duckdb</title><style>.edge>path:hover{stroke-width:8}</style>
<polygon fill="#c0a640" stroke="black" points="882.83,-616 879.83,-620 858.83,-620 855.83,-616 828.83,-616 828.83,-580 882.83,-580 882.83,-616"/>
<text text-anchor="middle" x="855.83" y="-595.5" font-family="Helvetica,sans-Serif" font-size="10.00" fill="#000000">duckdb</text>
</g>
<!-- pyiceberg -->
<g id="node23" class="node">
<title>pyiceberg</title><style>.edge>path:hover{stroke-width:8}</style>
<polygon fill="#6d10f9" stroke="black" points="932.33,-507 929.33,-511 908.33,-511 905.33,-507 867.33,-507 867.33,-471 932.33,-471 932.33,-507"/>
<text text-anchor="middle" x="899.83" y="-486.5" font-family="Helvetica,sans-Serif" font-size="10.00" fill="#ffffff">pyiceberg</text>
</g>
<!-- duckdb&#45;&gt;pyiceberg -->
<g id="edge6" class="edge">
<title>duckdb&#45;&gt;pyiceberg</title><style>.edge>path:hover{stroke-width:8}</style>
<path fill="none" stroke="black" d="M883.2,-583.66C886.09,-582.38 889,-581.13 891.83,-580 938.79,-561.16 1030.77,-584.04 999.83,-544"/>
</g>
<!-- fastapi -->
<g id="node6" class="node">
<title>fastapi</title><style>.edge>path:hover{stroke-width:8}</style>
<polygon fill="blue" stroke="black" points="645.83,-507 642.83,-511 621.83,-511 618.83,-507 591.83,-507 591.83,-471 645.83,-471 645.83,-507"/>
<text text-anchor="middle" x="618.83" y="-486.5" font-family="Helvetica,sans-Serif" font-size="10.00" fill="white">fastapi</text>
</g>
<!-- fastapi&#45;&gt;market_data -->
<g id="edge7" class="edge">
<title>fastapi&#45;&gt;market_data</title><style>.edge>path:hover{stroke-width:8}</style>
<path fill="none" stroke="black" d="M605.26,-470.97C598.27,-461.09 590.46,-448.05 586.83,-435 582.54,-419.59 582.03,-414.26 586.83,-399 595.45,-371.6 609.71,-371.02 623.83,-346"/>
</g>
<!-- great_expectations -->
<g id="node7" class="node">
<title>great_expectations</title><style>.edge>path:hover{stroke-width:8}</style>
<polygon fill="blue" stroke="black" points="806.83,-363 803.83,-367 782.83,-367 779.83,-363 696.83,-363 696.83,-327 806.83,-327 806.83,-363"/>
<text text-anchor="middle" x="751.83" y="-342.5" font-family="Helvetica,sans-Serif" font-size="10.00" fill="white">great_expectations</text>
</g>
<!-- great_expectations&#45;&gt;market_data -->
<g id="edge8" class="edge">
<title>great_expectations&#45;&gt;market_data</title><style>.edge>path:hover{stroke-width:8}</style>
<path fill="none" stroke="black" d="M756.11,-326.59C757.81,-315.64 758.11,-301.61 751.83,-291"/>
</g>
<!-- infrastructure -->
<g id="node8" class="node">
<title>infrastructure</title><style>.edge>path:hover{stroke-width:8}</style>
<polygon fill="#8eb653" stroke="black" points="384.33,-254 381.33,-258 360.33,-258 357.33,-254 301.33,-254 301.33,-218 384.33,-218 384.33,-254"/>
<text text-anchor="middle" x="342.83" y="-233.5" font-family="Helvetica,sans-Serif" font-size="10.00" fill="#000000">infrastructure</text>
</g>
<!-- infrastructure&#45;&gt;market_data -->
<g id="edge9" class="edge">
<title>infrastructure&#45;&gt;market_data</title><style>.edge>path:hover{stroke-width:8}</style>
<path fill="none" stroke="black" d="M301.28,-220.19C285.71,-211.76 271.93,-199.35 272.83,-182"/>
</g>
<!-- loguru -->
<g id="node9" class="node">
<title>loguru</title><style>.edge>path:hover{stroke-width:8}</style>
<polygon fill="blue" stroke="black" points="463.83,-507 460.83,-511 439.83,-511 436.83,-507 409.83,-507 409.83,-471 463.83,-471 463.83,-507"/>
<text text-anchor="middle" x="436.83" y="-486.5" font-family="Helvetica,sans-Serif" font-size="10.00" fill="white">loguru</text>
</g>
<!-- loguru&#45;&gt;market_data -->
<g id="edge10" class="edge">
<title>loguru&#45;&gt;market_data</title><style>.edge>path:hover{stroke-width:8}</style>
<path fill="none" stroke="black" d="M411.9,-470.86C400.77,-461.67 388.83,-449.29 382.83,-435 345.46,-345.96 451.56,-295.41 393.83,-218 360.28,-173.02 268.27,-237.92 272.83,-182"/>
</g>
<!-- ocm -->
<g id="node13" class="node">
<title>ocm</title><style>.edge>path:hover{stroke-width:8}</style>
<polygon fill="#10f96d" stroke="black" points="494.83,-254 491.83,-258 470.83,-258 467.83,-254 440.83,-254 440.83,-218 494.83,-218 494.83,-254"/>
<text text-anchor="middle" x="467.83" y="-233.5" font-family="Helvetica,sans-Serif" font-size="10.00" fill="#000000">ocm</text>
</g>
<!-- loguru&#45;&gt;ocm -->
<g id="edge11" class="edge">
<title>loguru&#45;&gt;ocm</title><style>.edge>path:hover{stroke-width:8}</style>
<path fill="none" stroke="black" d="M454.19,-470.89C466.62,-457.62 482.71,-438.13 491.83,-418"/>
<path fill="none" stroke="black" d="M491.83,-416C506.43,-383.75 537.08,-380.65 529.83,-346"/>
</g>
<!-- mmh3 -->
<g id="node11" class="node">
<title>mmh3</title><style>.edge>path:hover{stroke-width:8}</style>
<polygon fill="#47c247" stroke="black" points="954.83,-616 951.83,-620 930.83,-620 927.83,-616 900.83,-616 900.83,-580 954.83,-580 954.83,-616"/>
<text text-anchor="middle" x="927.83" y="-595.5" font-family="Helvetica,sans-Serif" font-size="10.00" fill="#000000">mmh3</text>
</g>
<!-- mmh3&#45;&gt;pyiceberg -->
<g id="edge12" class="edge">
<title>mmh3&#45;&gt;pyiceberg</title><style>.edge>path:hover{stroke-width:8}</style>
<path fill="none" stroke="black" d="M955.15,-583.68C978.51,-571.39 1007.28,-553.64 999.83,-544"/>
</g>
<!-- numpy -->
<g id="node12" class="node">
<title>numpy</title><style>.edge>path:hover{stroke-width:8}</style>
<polygon fill="blue" stroke="black" points="639.83,-869 636.83,-873 615.83,-873 612.83,-869 585.83,-869 585.83,-833 639.83,-833 639.83,-869"/>
<text text-anchor="middle" x="612.83" y="-848.5" font-family="Helvetica,sans-Serif" font-size="10.00" fill="white">numpy</text>
</g>
<!-- numpy&#45;&gt;market_data -->
<g id="edge13" class="edge">
<title>numpy&#45;&gt;market_data</title><style>.edge>path:hover{stroke-width:8}</style>
<path fill="none" stroke="black" d="M615.42,-832.89C616.39,-822.31 616.5,-808.58 612.83,-797"/>
<path fill="none" stroke="black" d="M612.83,-796C593.15,-734.03 561.71,-731.07 536.83,-671"/>
<path fill="none" stroke="black" d="M536.83,-669C506.54,-631.31 483.21,-641.01 441.83,-616 365.97,-570.16 324.98,-580.08 274.83,-507 251.94,-473.65 255.83,-458.45 255.83,-418 255.83,-418 255.83,-418 255.83,-344 255.83,-295.85 273.71,-285.14 272.83,-237"/>
<path fill="none" stroke="black" d="M272.83,-235C271.43,-211.49 272.8,-205.56 272.83,-182"/>
</g>
<!-- pandas -->
<g id="node16" class="node">
<title>pandas</title><style>.edge>path:hover{stroke-width:8}</style>
<polygon fill="blue" stroke="black" points="772.83,-616 769.83,-620 748.83,-620 745.83,-616 718.83,-616 718.83,-580 772.83,-580 772.83,-616"/>
<text text-anchor="middle" x="745.83" y="-595.5" font-family="Helvetica,sans-Serif" font-size="10.00" fill="white">pandas</text>
</g>
<!-- numpy&#45;&gt;pandas -->
<g id="edge14" class="edge">
<title>numpy&#45;&gt;pandas</title><style>.edge>path:hover{stroke-width:8}</style>
<path fill="none" stroke="black" d="M612.83,-796C591.94,-729.52 631.66,-706.7 674.83,-652 684.58,-639.64 697.89,-628.69 710.35,-620"/>
<polygon fill="blue" stroke="black" points="712.42,-622.82 718.78,-614.35 708.53,-617 712.42,-622.82"/>
</g>
<!-- pandera -->
<g id="node17" class="node">
<title>pandera</title><style>.edge>path:hover{stroke-width:8}</style>
<polygon fill="blue" stroke="black" points="651.83,-435 648.83,-439 627.83,-439 624.83,-435 595.83,-435 595.83,-399 651.83,-399 651.83,-435"/>
<text text-anchor="middle" x="623.83" y="-414.5" font-family="Helvetica,sans-Serif" font-size="10.00" fill="white">pandera</text>
</g>
<!-- numpy&#45;&gt;pandera -->
<g id="edge15" class="edge">
<title>numpy&#45;&gt;pandera</title><style>.edge>path:hover{stroke-width:8}</style>
<path fill="none" stroke="black" d="M536.83,-669C520.75,-631.78 535.76,-614.64 556.83,-580 585.05,-533.59 611.89,-540.25 654.83,-507 663.79,-500.06 673.45,-501.32 673.83,-490"/>
<path fill="none" stroke="black" d="M673.83,-488C673.98,-470.69 663.74,-454.7 652.48,-442.38"/>
<polygon fill="blue" stroke="black" points="654.94,-439.89 645.43,-435.21 649.95,-444.8 654.94,-439.89"/>
</g>
<!-- ocm&#45;&gt;market_data -->
<g id="edge16" class="edge">
<title>ocm&#45;&gt;market_data</title><style>.edge>path:hover{stroke-width:8}</style>
<path fill="none" stroke="black" d="M440.71,-223.03C436.13,-221.22 431.38,-219.46 426.83,-218 393.37,-207.23 271.01,-217.1 272.83,-182"/>
</g>
<!-- omegaconf -->
<g id="node14" class="node">
<title>omegaconf</title><style>.edge>path:hover{stroke-width:8}</style>
<polygon fill="#47c291" stroke="black" points="463.33,-435 460.33,-439 439.33,-439 436.33,-435 392.33,-435 392.33,-399 463.33,-399 463.33,-435"/>
<text text-anchor="middle" x="427.83" y="-414.5" font-family="Helvetica,sans-Serif" font-size="10.00" fill="#000000">omegaconf</text>
</g>
<!-- omegaconf&#45;&gt;ocm -->
<g id="edge17" class="edge">
<title>omegaconf&#45;&gt;ocm</title><style>.edge>path:hover{stroke-width:8}</style>
<path fill="none" stroke="black" d="M463.58,-399.53C493.29,-384.64 530.6,-362.57 529.83,-346"/>
<path fill="none" stroke="black" d="M529.83,-344C528.36,-312.71 508.43,-282.33 491.56,-261.99"/>
<polygon fill="#47c291" stroke="black" points="493.99,-259.46 484.81,-254.18 488.7,-264.03 493.99,-259.46"/>
</g>
<!-- packaging -->
<g id="node15" class="node">
<title>packaging</title><style>.edge>path:hover{stroke-width:8}</style>
<polygon fill="#2fdbb8" stroke="black" points="782.83,-688 779.83,-692 758.83,-692 755.83,-688 716.83,-688 716.83,-652 782.83,-652 782.83,-688"/>
<text text-anchor="middle" x="749.83" y="-667.5" font-family="Helvetica,sans-Serif" font-size="10.00" fill="#000000">packaging</text>
</g>
<!-- packaging&#45;&gt;pandera -->
<g id="edge18" class="edge">
<title>packaging&#45;&gt;pandera</title><style>.edge>path:hover{stroke-width:8}</style>
<path fill="none" stroke="black" d="M734.37,-651.94C726.1,-642.04 716.31,-629 709.83,-616 683.85,-563.88 676.34,-548.19 673.83,-490"/>
</g>
<!-- packaging&#45;&gt;pyiceberg -->
<g id="edge19" class="edge">
<title>packaging&#45;&gt;pyiceberg</title><style>.edge>path:hover{stroke-width:8}</style>
<path fill="none" stroke="black" d="M760.01,-651.98C769.45,-637.03 784.48,-615.19 800.83,-599"/>
<path fill="none" stroke="black" d="M800.83,-597C808.88,-589.03 809.69,-585.07 819.83,-580 892.8,-543.51 1048.42,-609.54 999.83,-544"/>
<path fill="none" stroke="black" d="M999.83,-543C985.68,-523.92 962.61,-511.05 942.18,-502.77"/>
<polygon fill="#2fdbb8" stroke="black" points="943.32,-499.45 932.73,-499.17 940.83,-506 943.32,-499.45"/>
</g>
<!-- pandas&#45;&gt;great_expectations -->
<g id="edge20" class="edge">
<title>pandas&#45;&gt;great_expectations</title><style>.edge>path:hover{stroke-width:8}</style>
<path fill="none" stroke="black" d="M751.83,-416C746.68,-402.47 746.33,-386.37 747.42,-373.02"/>
<polygon fill="blue" stroke="black" points="750.9,-373.34 748.54,-363.01 743.95,-372.56 750.9,-373.34"/>
</g>
<!-- pandas&#45;&gt;market_data -->
<g id="edge21" class="edge">
<title>pandas&#45;&gt;market_data</title><style>.edge>path:hover{stroke-width:8}</style>
<path fill="none" stroke="black" d="M751.83,-488C737.3,-460.49 762.88,-447.08 751.83,-418"/>
<path fill="none" stroke="black" d="M751.83,-416C728.78,-355.39 593.27,-403.19 623.83,-346"/>
</g>
<!-- pandas&#45;&gt;pandera -->
<g id="edge22" class="edge">
<title>pandas&#45;&gt;pandera</title><style>.edge>path:hover{stroke-width:8}</style>
<path fill="none" stroke="black" d="M750.51,-579.84C753.97,-568.98 759.38,-554.97 766.83,-544"/>
<path fill="none" stroke="black" d="M766.83,-543C780.58,-522.75 763.26,-511.65 751.83,-490"/>
<path fill="none" stroke="black" d="M751.83,-488C747.05,-478.95 697.32,-453.44 661.28,-435.86"/>
<polygon fill="blue" stroke="black" points="662.52,-432.56 651.99,-431.35 659.46,-438.86 662.52,-432.56"/>
</g>
<!-- pandas&#45;&gt;pyiceberg -->
<g id="edge23" class="edge">
<title>pandas&#45;&gt;pyiceberg</title><style>.edge>path:hover{stroke-width:8}</style>
<path fill="none" stroke="black" d="M766.83,-543C786.9,-513.44 826.36,-500.36 857.12,-494.58"/>
<polygon fill="blue" stroke="black" points="857.89,-498 867.17,-492.89 856.73,-491.1 857.89,-498"/>
</g>
<!-- shared -->
<g id="node27" class="node">
<title>shared</title><style>.edge>path:hover{stroke-width:8}</style>
<polygon fill="#f910cb" stroke="black" points="723.83,-435 720.83,-439 699.83,-439 696.83,-435 669.83,-435 669.83,-399 723.83,-399 723.83,-435"/>
<text text-anchor="middle" x="696.83" y="-414.5" font-family="Helvetica,sans-Serif" font-size="10.00" fill="#ffffff">shared</text>
</g>
<!-- pandas&#45;&gt;shared -->
<g id="edge24" class="edge">
<title>pandas&#45;&gt;shared</title><style>.edge>path:hover{stroke-width:8}</style>
<path fill="none" stroke="black" d="M751.83,-488C743.3,-471.86 730.94,-455.71 720.09,-442.99"/>
<polygon fill="blue" stroke="black" points="722.45,-440.38 713.23,-435.17 717.19,-445 722.45,-440.38"/>
</g>
<!-- pandera&#45;&gt;market_data -->
<g id="edge25" class="edge">
<title>pandera&#45;&gt;market_data</title><style>.edge>path:hover{stroke-width:8}</style>
<path fill="none" stroke="black" d="M619.39,-398.99C616.47,-384.03 614.69,-362.19 623.83,-346"/>
</g>
<!-- polars -->
<g id="node18" class="node">
<title>polars</title><style>.edge>path:hover{stroke-width:8}</style>
<polygon fill="#408cc0" stroke="black" points="1026.83,-616 1023.83,-620 1002.83,-620 999.83,-616 972.83,-616 972.83,-580 1026.83,-580 1026.83,-616"/>
<text text-anchor="middle" x="999.83" y="-595.5" font-family="Helvetica,sans-Serif" font-size="10.00" fill="#ffffff">polars</text>
</g>
<!-- polars&#45;&gt;pyiceberg -->
<g id="edge26" class="edge">
<title>polars&#45;&gt;pyiceberg</title><style>.edge>path:hover{stroke-width:8}</style>
<path fill="none" stroke="black" d="M1004.87,-579.51C1007,-568.24 1007.48,-553.9 999.83,-544"/>
</g>
<!-- prometheus_client -->
<g id="node19" class="node">
<title>prometheus_client</title><style>.edge>path:hover{stroke-width:8}</style>
<polygon fill="blue" stroke="black" points="391.33,-507 388.33,-511 367.33,-511 364.33,-507 284.33,-507 284.33,-471 391.33,-471 391.33,-507"/>
<text text-anchor="middle" x="337.83" y="-486.5" font-family="Helvetica,sans-Serif" font-size="10.00" fill="white">prometheus_client</text>
</g>
<!-- prometheus_client&#45;&gt;market_data -->
<g id="edge27" class="edge">
<title>prometheus_client&#45;&gt;market_data</title><style>.edge>path:hover{stroke-width:8}</style>
<path fill="none" stroke="black" d="M326.69,-470.94C305.09,-435.52 262.28,-352.21 293.83,-291"/>
<path fill="none" stroke="black" d="M293.83,-290C307.43,-268.62 273.29,-262.33 272.83,-237"/>
</g>
<!-- prometheus_client&#45;&gt;ocm -->
<g id="edge28" class="edge">
<title>prometheus_client&#45;&gt;ocm</title><style>.edge>path:hover{stroke-width:8}</style>
<path fill="none" stroke="black" d="M293.83,-290C300.24,-277.55 381.31,-256.91 430.49,-245.4"/>
<polygon fill="blue" stroke="black" points="431.51,-248.76 440.47,-243.09 429.93,-241.94 431.51,-248.76"/>
</g>
<!-- pyarrow -->
<g id="node20" class="node">
<title>pyarrow</title><style>.edge>path:hover{stroke-width:8}</style>
<polygon fill="blue" stroke="black" points="968.83,-869 965.83,-873 944.83,-873 941.83,-869 912.83,-869 912.83,-833 968.83,-833 968.83,-869"/>
<text text-anchor="middle" x="940.83" y="-848.5" font-family="Helvetica,sans-Serif" font-size="10.00" fill="white">pyarrow</text>
</g>
<!-- pyarrow&#45;&gt;market_data -->
<g id="edge29" class="edge">
<title>pyarrow&#45;&gt;market_data</title><style>.edge>path:hover{stroke-width:8}</style>
<path fill="none" stroke="black" d="M1037.83,-543C988.14,-518.16 1048.67,-472.49 1037.83,-418"/>
</g>
<!-- pyarrow&#45;&gt;pandas -->
<g id="edge30" class="edge">
<title>pyarrow&#45;&gt;pandas</title><style>.edge>path:hover{stroke-width:8}</style>
<path fill="none" stroke="black" d="M940.83,-796C926.75,-777.12 952.65,-763.37 940.83,-743"/>
<path fill="none" stroke="black" d="M940.83,-741C887.52,-649.15 774.07,-771.01 707.83,-688 692.61,-668.93 706.89,-642.85 722.1,-623.85"/>
<polygon fill="blue" stroke="black" points="724.8,-626.08 728.59,-616.18 719.46,-621.55 724.8,-626.08"/>
</g>
<!-- pyarrow&#45;&gt;pandera -->
<g id="edge31" class="edge">
<title>pyarrow&#45;&gt;pandera</title><style>.edge>path:hover{stroke-width:8}</style>
<path fill="none" stroke="black" d="M945.76,-832.59C947.84,-821.36 948.31,-807.03 940.83,-797"/>
<path fill="none" stroke="black" d="M940.83,-796C875.3,-708.12 772.39,-839.41 696.83,-760 613.8,-672.76 672.79,-610.43 673.83,-490"/>
</g>
<!-- pyarrow&#45;&gt;pyiceberg -->
<g id="edge32" class="edge">
<title>pyarrow&#45;&gt;pyiceberg</title><style>.edge>path:hover{stroke-width:8}</style>
<path fill="none" stroke="black" d="M940.83,-741C871.22,-617.25 1156.49,-734.42 1234.83,-616 1311.09,-500.71 1183.63,-613.94 1037.83,-544"/>
<path fill="none" stroke="black" d="M1037.83,-543C1006.75,-527.46 969.95,-513.54 942.17,-503.86"/>
<polygon fill="blue" stroke="black" points="942.97,-500.44 932.37,-500.5 940.69,-507.06 942.97,-500.44"/>
</g>
<!-- pydantic -->
<g id="node21" class="node">
<title>pydantic</title><style>.edge>path:hover{stroke-width:8}</style>
<polygon fill="#0505e5" stroke="black" points="624.33,-616 621.33,-620 600.33,-620 597.33,-616 565.33,-616 565.33,-580 624.33,-580 624.33,-616"/>
<text text-anchor="middle" x="594.83" y="-595.5" font-family="Helvetica,sans-Serif" font-size="10.00" fill="#ffffff">pydantic</text>
</g>
<!-- pydantic&#45;&gt;fastapi -->
<g id="edge33" class="edge">
<title>pydantic&#45;&gt;fastapi</title><style>.edge>path:hover{stroke-width:8}</style>
<path fill="none" stroke="black" d="M600.65,-579.54C604.33,-569.07 609.41,-555.58 614.83,-544"/>
<path fill="none" stroke="black" d="M614.83,-543C618.56,-535.04 620.06,-525.66 620.49,-517.03"/>
<polygon fill="#0505e5" stroke="black" points="623.99,-517.03 620.54,-507.01 616.99,-516.99 623.99,-517.03"/>
</g>
<!-- pydantic&#45;&gt;ocm -->
<g id="edge34" class="edge">
<title>pydantic&#45;&gt;ocm</title><style>.edge>path:hover{stroke-width:8}</style>
<path fill="none" stroke="black" d="M572.22,-579.82C534.07,-548.6 463.72,-480.06 491.83,-418"/>
</g>
<!-- pydantic&#45;&gt;pandera -->
<g id="edge35" class="edge">
<title>pydantic&#45;&gt;pandera</title><style>.edge>path:hover{stroke-width:8}</style>
<path fill="none" stroke="black" d="M614.83,-543C629.77,-511.08 675.35,-525.22 673.83,-490"/>
</g>
<!-- pydantic&#45;&gt;pyiceberg -->
<g id="edge36" class="edge">
<title>pydantic&#45;&gt;pyiceberg</title><style>.edge>path:hover{stroke-width:8}</style>
<path fill="none" stroke="black" d="M624.35,-586.64C678.7,-567.58 794.76,-526.86 857.49,-504.85"/>
<polygon fill="#0505e5" stroke="black" points="858.8,-508.1 867.08,-501.49 856.49,-501.5 858.8,-508.1"/>
</g>
<!-- pydantic_core -->
<g id="node22" class="node">
<title>pydantic_core</title><style>.edge>path:hover{stroke-width:8}</style>
<polygon fill="blue" stroke="black" points="790.33,-760 787.33,-764 766.33,-764 763.33,-760 705.33,-760 705.33,-724 790.33,-724 790.33,-760"/>
<text text-anchor="middle" x="747.83" y="-739.5" font-family="Helvetica,sans-Serif" font-size="10.00" fill="white">pydantic_core</text>
</g>
<!-- pydantic_core&#45;&gt;pydantic -->
<g id="edge37" class="edge">
<title>pydantic_core&#45;&gt;pydantic</title><style>.edge>path:hover{stroke-width:8}</style>
<path fill="none" stroke="black" d="M721.47,-723.86C707.12,-714.05 689.37,-701.1 674.83,-688 652.64,-668.01 630.15,-642.41 614.69,-623.81"/>
<polygon fill="blue" stroke="black" points="617.37,-621.55 608.31,-616.04 611.96,-625.99 617.37,-621.55"/>
</g>
<!-- pydantic_core&#45;&gt;pyiceberg -->
<g id="edge38" class="edge">
<title>pydantic_core&#45;&gt;pyiceberg</title><style>.edge>path:hover{stroke-width:8}</style>
<path fill="none" stroke="black" d="M766.74,-723.7C775.93,-714.12 786.19,-701.46 791.83,-688 807.19,-651.33 772.57,-626.97 800.83,-599"/>
</g>
<!-- pyiceberg&#45;&gt;market_data -->
<g id="edge39" class="edge">
<title>pyiceberg&#45;&gt;market_data</title><style>.edge>path:hover{stroke-width:8}</style>
<path fill="none" stroke="black" d="M932.41,-485.55C976.63,-480.46 1048.96,-464.92 1037.83,-418"/>
<path fill="none" stroke="black" d="M1037.83,-416C1029.82,-382.26 767.36,-322.01 751.83,-291"/>
</g>
<!-- pyiceberg_core -->
<g id="node24" class="node">
<title>pyiceberg_core</title><style>.edge>path:hover{stroke-width:8}</style>
<polygon fill="#8e53b6" stroke="black" points="1136.33,-616 1133.33,-620 1112.33,-620 1109.33,-616 1045.33,-616 1045.33,-580 1136.33,-580 1136.33,-616"/>
<text text-anchor="middle" x="1090.83" y="-595.5" font-family="Helvetica,sans-Serif" font-size="10.00" fill="#ffffff">pyiceberg_core</text>
</g>
<!-- pyiceberg_core&#45;&gt;pyiceberg -->
<g id="edge40" class="edge">
<title>pyiceberg_core&#45;&gt;pyiceberg</title><style>.edge>path:hover{stroke-width:8}</style>
<path fill="none" stroke="black" d="M1046.39,-579.77C1029.65,-571.28 1011.79,-559.48 999.83,-544"/>
</g>
<!-- redis -->
<g id="node25" class="node">
<title>redis</title><style>.edge>path:hover{stroke-width:8}</style>
<polygon fill="blue" stroke="black" points="573.83,-507 570.83,-511 549.83,-511 546.83,-507 519.83,-507 519.83,-471 573.83,-471 573.83,-507"/>
<text text-anchor="middle" x="546.83" y="-486.5" font-family="Helvetica,sans-Serif" font-size="10.00" fill="white">redis</text>
</g>
<!-- redis&#45;&gt;market_data -->
<g id="edge41" class="edge">
<title>redis&#45;&gt;market_data</title><style>.edge>path:hover{stroke-width:8}</style>
<path fill="none" stroke="black" d="M529.83,-416C538.81,-364.69 598.23,-391.36 623.83,-346"/>
<path fill="none" stroke="black" d="M623.83,-344C654.09,-290.38 783.18,-343.99 751.83,-291"/>
<path fill="none" stroke="black" d="M751.83,-290C693.38,-191.22 615.87,-242.89 503.83,-218 453.11,-206.73 268.03,-233.73 272.83,-182"/>
</g>
<!-- redis&#45;&gt;ocm -->
<g id="edge42" class="edge">
<title>redis&#45;&gt;ocm</title><style>.edge>path:hover{stroke-width:8}</style>
<path fill="none" stroke="black" d="M538.6,-470.87C532.82,-456.78 526.64,-436.23 529.83,-418"/>
<path fill="none" stroke="black" d="M529.83,-416C535.19,-385.35 536.2,-376.45 529.83,-346"/>
</g>
<!-- rich -->
<g id="node26" class="node">
<title>rich</title><style>.edge>path:hover{stroke-width:8}</style>
<polygon fill="blue" stroke="black" points="1208.83,-616 1205.83,-620 1184.83,-620 1181.83,-616 1154.83,-616 1154.83,-580 1208.83,-580 1208.83,-616"/>
<text text-anchor="middle" x="1181.83" y="-595.5" font-family="Helvetica,sans-Serif" font-size="10.00" fill="white">rich</text>
</g>
<!-- rich&#45;&gt;pyiceberg -->
<g id="edge43" class="edge">
<title>rich&#45;&gt;pyiceberg</title><style>.edge>path:hover{stroke-width:8}</style>
<path fill="none" stroke="black" d="M1154.55,-583.43C1151.64,-582.19 1148.69,-581.02 1145.83,-580 1082.85,-557.62 1040.69,-596.88 999.83,-544"/>
</g>
<!-- shared&#45;&gt;market_data -->
<g id="edge44" class="edge">
<title>shared&#45;&gt;market_data</title><style>.edge>path:hover{stroke-width:8}</style>
<path fill="none" stroke="black" d="M670.37,-398.7C646.79,-382.22 616.97,-358.16 623.83,-346"/>
</g>
<!-- shared&#45;&gt;ocm -->
<g id="edge45" class="edge">
<title>shared&#45;&gt;ocm</title><style>.edge>path:hover{stroke-width:8}</style>
<path fill="none" stroke="black" d="M669.78,-403.02C666.77,-401.64 663.74,-400.28 660.83,-399 603.3,-373.8 542.69,-407.48 529.83,-346"/>
</g>
<!-- sqlalchemy -->
<g id="node28" class="node">
<title>sqlalchemy</title><style>.edge>path:hover{stroke-width:8}</style>
<polygon fill="#c43189" stroke="black" points="912.33,-688 909.33,-692 888.33,-692 885.33,-688 839.33,-688 839.33,-652 912.33,-652 912.33,-688"/>
<text text-anchor="middle" x="875.83" y="-667.5" font-family="Helvetica,sans-Serif" font-size="10.00" fill="#ffffff">sqlalchemy</text>
</g>
<!-- sqlalchemy&#45;&gt;pyiceberg -->
<g id="edge46" class="edge">
<title>sqlalchemy&#45;&gt;pyiceberg</title><style>.edge>path:hover{stroke-width:8}</style>
<path fill="none" stroke="black" d="M912.35,-655.86C917.18,-654.41 922.09,-653.07 926.83,-652 990.38,-637.63 1174.67,-664.82 1217.83,-616 1228.42,-604.01 1228.18,-592.2 1217.83,-580 1154.3,-505.12 1059.88,-621.7 999.83,-544"/>
</g>
<!-- starlette -->
<g id="node29" class="node">
<title>starlette</title><style>.edge>path:hover{stroke-width:8}</style>
<polygon fill="#f9106d" stroke="black" points="508.83,-616 505.83,-620 484.83,-620 481.83,-616 450.83,-616 450.83,-580 508.83,-580 508.83,-616"/>
<text text-anchor="middle" x="479.83" y="-595.5" font-family="Helvetica,sans-Serif" font-size="10.00" fill="#ffffff">starlette</text>
</g>
<!-- starlette&#45;&gt;fastapi -->
<g id="edge47" class="edge">
<title>starlette&#45;&gt;fastapi</title><style>.edge>path:hover{stroke-width:8}</style>
<path fill="none" stroke="black" d="M502.16,-579.81C525.57,-561.79 562.49,-533.37 588.51,-513.34"/>
<polygon fill="#f9106d" stroke="black" points="590.76,-516.02 596.55,-507.15 586.49,-510.48 590.76,-516.02"/>
</g>
<!-- uvicorn -->
<g id="node30" class="node">
<title>uvicorn</title><style>.edge>path:hover{stroke-width:8}</style>
<polygon fill="blue" stroke="black" points="354.83,-145 351.83,-149 330.83,-149 327.83,-145 300.83,-145 300.83,-109 354.83,-109 354.83,-145"/>
<text text-anchor="middle" x="327.83" y="-124.5" font-family="Helvetica,sans-Serif" font-size="10.00" fill="white">uvicorn</text>
</g>
<!-- uvicorn&#45;&gt;market_data -->
<g id="edge48" class="edge">
<title>uvicorn&#45;&gt;market_data</title><style>.edge>path:hover{stroke-width:8}</style>
<path fill="none" stroke="black" d="M300.57,-109.9C288.62,-100.88 276.48,-88.35 272.83,-73"/>
</g>
</g>
</svg>
